<svg width="512" height="512" viewBox="0 0 512 512" fill="none" xmlns="http://www.w3.org/2000/svg">
<g clip-path="url(#clip0_78_5)">
<path d="M256 0C397.385 0 512 114.615 512 256C512 397.385 397.385 512 256 512C114.615 512 0 397.385 0 256C0 114.615 114.615 0 256 0ZM350.315 193.31C346.63 193.31 343.027 194.404 339.964 196.453C336.901 198.502 334.515 201.415 333.108 204.821L256.951 389.291C256.004 391.553 255.514 393.98 255.508 396.433C255.502 398.885 255.98 401.314 256.915 403.581C257.851 405.848 259.225 407.908 260.959 409.643C262.693 411.377 264.753 412.751 267.02 413.687C269.286 414.622 271.717 415.102 274.169 415.096C276.621 415.09 279.048 414.599 281.311 413.652C283.573 412.706 285.626 411.322 287.352 409.579C289.077 407.837 290.442 405.769 291.366 403.498L306.877 365.937H393.755L409.266 403.498C410.672 406.906 413.058 409.821 416.122 411.871C419.186 413.921 422.79 415.015 426.477 415.015C429.536 415.013 432.548 414.258 435.245 412.815C437.943 411.373 440.242 409.287 441.942 406.744C443.642 404.201 444.69 401.278 444.991 398.233C445.293 395.189 444.84 392.118 443.672 389.291H443.68L367.523 204.821C366.117 201.415 363.73 198.502 360.667 196.453C357.604 194.404 354.001 193.31 350.315 193.31ZM201.391 63C196.453 63 191.718 64.961 188.227 68.4521C184.735 71.9434 182.774 76.6789 182.774 81.6162V98.54H84.6162C79.6789 98.54 74.9434 100.501 71.4521 103.992C67.961 107.483 66 112.219 66 117.156C66 122.093 67.9612 126.828 71.4521 130.319C74.9434 133.811 79.6789 135.772 84.6162 135.772H251.527C243.472 158.577 228.638 194.582 206.011 227.465C179.44 192.206 169.562 169.388 169.48 169.188C167.535 164.692 163.895 161.143 159.35 159.312C154.805 157.482 149.721 157.518 145.202 159.411C140.683 161.304 137.092 164.903 135.209 169.426C133.326 173.949 133.302 179.032 135.143 183.573C135.633 184.741 147.455 212.538 179.872 254.594C180.651 255.601 181.42 256.583 182.19 257.564C148.986 295.093 116.407 318.372 102.775 325.886C98.4407 328.25 95.2224 332.24 93.8291 336.977C92.4359 341.713 92.9815 346.81 95.3457 351.145C97.71 355.479 101.7 358.698 106.437 360.091C111.173 361.484 116.27 360.938 120.604 358.574C122.432 357.576 161.729 335.82 206.603 286.148C225.659 306.525 238.758 316.138 239.545 316.696C241.525 318.134 243.77 319.168 246.149 319.738C248.529 320.308 250.998 320.403 253.415 320.018C255.832 319.632 258.149 318.775 260.233 317.493C262.318 316.212 264.13 314.532 265.565 312.55V312.559C268.458 308.564 269.646 303.583 268.87 298.713C268.094 293.842 265.418 289.479 261.428 286.58C261.258 286.453 248.734 277.162 230.55 257.192C264.101 211.769 283.106 160.092 290.857 135.772H318.164C323.101 135.772 327.837 133.811 331.328 130.319C334.819 126.828 336.78 122.093 336.78 117.156C336.78 112.219 334.819 107.483 331.328 103.992C327.837 100.501 323.101 98.54 318.164 98.54H220.007V81.6162C220.007 76.6789 218.045 71.9434 214.554 68.4521C211.063 64.9612 206.328 63.0001 201.391 63ZM378.388 328.704H322.252L350.32 260.713L378.388 328.704Z" fill="#D9D9D9"/>
</g>
<defs>
<clipPath id="clip0_78_5">
<rect width="512" height="512" fill="white"/>
</clipPath>
</defs>
</svg>
